<svg width="32" height="32" viewBox="0 0 32 32" fill="none" xmlns="http://www.w3.org/2000/svg">
<path fill-rule="evenodd" clip-rule="evenodd" d="M22.586 2.58606C22.9611 2.21112 23.4697 2.00049 24 2.00049C24.5303 2.00049 25.0389 2.21112 25.414 2.58606L29.414 6.58606C29.7889 6.96112 29.9996 7.46973 29.9996 8.00006C29.9996 8.53039 29.7889 9.039 29.414 9.41406L11.414 27.4141C11.195 27.6337 10.928 27.7994 10.634 27.8981L4.634 29.8981C4.28149 30.0161 3.90306 30.0335 3.54119 29.9484C3.17932 29.8633 2.84833 29.6791 2.58537 29.4163C2.3224 29.1535 2.13788 28.8227 2.05249 28.4609C1.96711 28.0991 1.98425 27.7207 2.102 27.3681L4.102 21.3681C4.2004 21.0733 4.36611 20.8056 4.586 20.5861L22.586 2.58606V2.58606ZM24 4.00006L28 8.00006L10 26.0001L4 28.0001L6 22.0001L24 4.00006Z" fill="#1E1E1E"/>
<path fill-rule="evenodd" clip-rule="evenodd" d="M24.292 12.708L19.292 7.70799L20.708 6.29199L25.708 11.292L24.294 12.708H24.292ZM6 20V21C6 21.2652 6.10536 21.5196 6.29289 21.7071C6.48043 21.8946 6.73478 22 7 22H8V23C8 23.2652 8.10536 23.5196 8.29289 23.7071C8.48043 23.8946 8.73478 24 9 24H10V25C10 25.2652 10.1054 25.5196 10.2929 25.7071C10.4804 25.8946 10.7348 26 11 26H12V23C12 22.7348 11.8946 22.4804 11.7071 22.2929C11.5196 22.1053 11.2652 22 11 22H10V21C10 20.7348 9.89464 20.4804 9.70711 20.2929C9.51957 20.1053 9.26522 20 9 20H6Z" fill="#1E1E1E"/>
</svg>
